PathFileType	4	(X/Y/Z)	28_1_47_p1_0-251_filt_butterworth.trc
DataRate	CameraRate	NumFrames	NumMarkers	Units	OrigDataRate	OrigDataStartFrame	OrigNumFrames
59.0	59.0	7	27	m	59.0	62	251
Frame#	Time	RHip			RKnee			RAnkle			RBigToe			RSmallToe			RHeel			LHip			LKnee			LAnkle			LBigToe			LSmallToe			LHeel			Neck			Head			Nose			RShoulder			RElbow			RWrist			RThumb			RIndex			RPinky			LShoulder			LElbow			LWrist			LThumb			LIndex			LPinky			
		X1	Y1	Z1	X2	Y2	Z2	X3	Y3	Z3	X4	Y4	Z4	X5	Y5	Z5	X6	Y6	Z6	X7	Y7	Z7	X8	Y8	Z8	X9	Y9	Z9	X10	Y10	Z10	X11	Y11	Z11	X12	Y12	Z12	X13	Y13	Z13	X14	Y14	Z14	X15	Y15	Z15	X16	Y16	Z16	X17	Y17	Z17	X18	Y18	Z18	X19	Y19	Z19	X20	Y20	Z20	X21	Y21	Z21	X22	Y22	Z22	X23	Y23	Z23	X24	Y24	Z24	X25	Y25	Z25	X26	Y26	Z26	X27	Y27	Z27	
62	1.0508474576271187	0.2232760956296208	0.6313999820722255	0.8438760087551502	0.22252796601890415	0.17384756241177102	0.9474349004688845	0.21538414928123353	-0.26767818619364686	1.0084196091865776	0.18015087371250152	-0.2876560785530374	0.8336186282778227	0.24544076343503324	-0.2794957511396152	0.8304679119482452	0.19630000500223285	-0.37142194990182037	1.1160312721732308	0.003753895602027682	0.6166048135958986	0.8674371979387139	0.02035950443153184	0.1751378843290497	0.9265456342269306	0.02329631747764802	-0.2879975345409305	1.0246098864418753	0.03191888753778382	-0.2919198242038752	0.8467687749434306	-0.03184478733397033	-0.29748976188921905	0.8745319271173404	0.04851851239531757	-0.36133784351211706	1.089323796982664	0.08674724990512173	1.2743819922741364	0.8462442570379336	0.07846280847870282	1.5190744320588423	0.7918040748125985	0.07851814287075008	1.3919621252684298	0.6759652915934181	0.26751605809140844	1.170453363959789	0.8336648554275047	0.3113657259051801	0.8842253467207701	0.8338151307204003	0.13800701725994138	0.7023344892980512	0.6911328631445603	0.06973885463145604	0.6229525034144782	0.6988600009473696	0.06939809999482732	0.5934170384788039	0.7280403434824123	0.07732416698225103	0.5958994924859454	0.7303614932782407	-0.09188241721952517	1.18074311644456	0.8625108568315458	-0.1224001489322886	0.876200959808909	0.856543932891829	0.03571962237714889	0.7227552155422866	0.6773488182473786	0.12744679548278223	0.6710287955254584	0.6579900747356886	0.12927930181208014	0.6310693798341789	0.6580756266809473	0.0888523053587523	0.5918594561710911	0.7125167670447761	
63	1.0677966101694916	0.22320749222128397	0.6316871410632131	0.8437983328390608	0.222172830745855	0.1730009868856915	0.9491458523165837	0.2153750220619308	-0.26726768572754	1.0084932418565722	0.1798567178923658	-0.28827227105198583	0.8345115860011196	0.24489702948020742	-0.27884266104570593	0.829263393179556	0.19626875241412411	-0.37128712455297047	1.1159689139041589	0.0037361807610830815	0.6167059434116758	0.8674810015629304	0.020231701498053374	0.1749337987076825	0.9269645834278388	0.023193887720231968	-0.2874046488136571	1.0246944924174568	0.03190709727652888	-0.291932468537204	0.8467906040609389	-0.03182626377501101	-0.29771225773303406	0.8745416035773544	0.04829949836922407	-0.3595336211854099	1.0874860031596454	0.08674581348168209	1.274385807632229	0.8462310733022849	0.0784857502906706	1.5190696996174813	0.7917268160060935	0.07853618276462081	1.391710062839256	0.6759372842844896	0.26742789708860454	1.1704708671714188	0.8334261252939836	0.3113691378402953	0.8842270138947325	0.833814967743948	0.13702865128833674	0.7022319928066917	0.6910426229481573	0.06876183000636704	0.6224358781205515	0.7003380463343822	0.06937709439735917	0.5934180021333224	0.7280604857340056	0.07740074086555944	0.5960066861080966	0.7300865145663968	-0.09225332895073138	1.1807484482436723	0.8623035696137904	-0.12246598637232196	0.8763422826874614	0.8561637284215834	0.03572381235476305	0.7227546831154884	0.6773595949326445	0.12741638705257524	0.6711065909884069	0.6579685812051839	0.12926764835086624	0.6310388825083338	0.6581357227669005	0.08822456925542069	0.5915588360316983	0.7136304996763321	
64	1.0847457627118644	0.22311876480322848	0.6320860401892874	0.8436903945620899	0.2217879462568838	0.1721956228827244	0.9508995810967673	0.21538387862798336	-0.26690418639394586	1.0085357855215775	0.1796121786247754	-0.28909819826026545	0.8356842267440728	0.24487751223865645	-0.2786974911895706	0.8289876853070679	0.19623510127922306	-0.37113600040461336	1.115898006339263	0.003714905590669529	0.6167833226133019	0.8675169421437867	0.020195541739958776	0.174914011406185	0.9270952859268486	0.023104747880949916	-0.2868677890844826	1.0247938457664019	0.03189862771910316	-0.29193013232779524	0.8467922783088253	-0.03158116819074757	-0.29804925079804256	0.8745149007538856	0.04808360123671243	-0.35801516315497434	1.0858330292655787	0.08674842357770379	1.274391773001124	0.8462177897239815	0.07861651112692258	1.5190588401743956	0.7912304830264034	0.07853394473011015	1.3916599184277365	0.675922853801012	0.2675217590305033	1.1704594686417293	0.8336561259207078	0.3113761594237313	0.884224092608081	0.8338266205542308	0.1360163476274454	0.7022723219218994	0.6909725533628452	0.06799072438042286	0.6220140066543957	0.7014459540623428	0.0693692670053317	0.5933873505189606	0.7280857484249927	0.0774993755765058	0.5961279470121521	0.7297670906640663	-0.09238130842192026	1.1807528619952636	0.862236316345858	-0.12254940399729403	0.8765246901503949	0.8556989168835816	0.03572743874649334	0.7228125268514672	0.6773560441447289	0.12740573092114052	0.6711309560153644	0.6579841241451121	0.12924701907434027	0.6310108269772614	0.6581641144020414	0.08816201288858684	0.5918569881569519	0.7142212078206542	
65	1.1016949152542372	0.22301763371367028	0.632559468052512	0.8435627806693622	0.22142596764161313	0.17152721392773407	0.9524601931765483	0.2154028913929655	-0.2666184498544777	1.0085562047462293	0.17928356274119828	-0.2896574389252731	0.8364333034099626	0.24509890248885746	-0.27886339450729575	0.8292865511697185	0.19621382570862345	-0.371038804777225	1.1158471652646054	0.003698825641200976	0.6167792757970785	0.8675264629040278	0.02025985551965758	0.17510585963714265	0.9269219596906251	0.023045884145622232	-0.2864587368753936	1.0248914638336775	0.03189576531094244	-0.2919161279950042	0.8467836846810135	-0.031087234064158864	-0.29827985626424225	0.8744547341313621	0.04790296104556676	-0.35685520940446025	1.084352842388419	0.08675401389043755	1.274399165124171	0.8462027787983994	0.07881182913967116	1.5190443692425943	0.7904812134828132	0.0785213166854368	1.3917331554268348	0.6759202867275111	0.2676408435681997	1.1704475902531077	0.8339455028450098	0.31138373100021927	0.8842190352935184	0.8338456479644634	0.13525444526509361	0.7023047699873007	0.6909052149124053	0.06748372457343679	0.621760409718203	0.7021485128367271	0.0693625344435197	0.5933392453171357	0.7281194651956546	0.07755120792166467	0.5961694541266864	0.7296091334081339	-0.09238674582642056	1.1807545340004058	0.8622503858113904	-0.12262895210768412	0.8766965196015652	0.8552702555183291	0.035722135062799726	0.7229700652952352	0.6773220791031076	0.12741380057482402	0.6711148158076103	0.6580141755433202	0.1291931383758874	0.6310135575570681	0.6580699136773609	0.08854249031099504	0.5925618893113458	0.7145629354310988	
66	1.11864406779661	0.22291610354375538	0.6330477163786252	0.8434307099460393	0.22111435306246877	0.1710454056802742	0.9537070646230057	0.21542068351685523	-0.26647553099055266	1.0085612066767375	0.17892476710617122	-0.28956055463542196	0.835816842532863	0.2453005468816256	-0.27907651836708236	0.8297066717736079	0.19620783053107485	-0.3710041968409171	1.115820721119559	0.003690549211928887	0.6166902389468494	0.8675100310006176	0.020405663279407422	0.17550641226587071	0.9265249475563031	0.023016405950698145	-0.2861630248858174	1.0249682091584296	0.03189876333875451	-0.2918909675000802	0.8467669110229226	-0.030359138756690544	-0.29816045886247156	0.874356738121646	0.047768989519240836	-0.35605509218899695	1.083098939497158	0.08675974311517887	1.2744058955681288	0.846185936611993	0.0789654624422393	1.5190344862592464	0.7898863340279408	0.07850783403903065	1.3918209195673061	0.6759225913230351	0.26770203845819135	1.1704496769928445	0.8340822105612158	0.31138764025829324	0.8842134512267126	0.8338642198049806	0.1349789931356096	0.7022620121988802	0.6908356709568388	0.06741473158925029	0.6217266731340706	0.702313637658539	0.06935196025270507	0.5932823838962655	0.7281500054834925	0.07756255575533479	0.5961412307354697	0.7295823077702219	-0.09235052499009533	1.1807528820805993	0.8622979218304883	-0.1226858757741156	0.8768232527293189	0.8549760242359592	0.03569951354059154	0.7231688851518538	0.6772540946851702	0.12743003205213463	0.6710917299239598	0.6580312717620125	0.1290991131398551	0.6310625633726019	0.6578178772289189	0.08908586458529605	0.593432903838714	0.7147772434535233	
67	1.1355932203389831	0.2228248437132901	0.6334966979021129	0.8433064675007932	0.22085885213289017	0.17076657756338465	0.9546224884469887	0.21543096869363376	-0.2665158178165917	1.0085494596545086	0.17867225632329808	-0.2887543414463875	0.833569056768901	0.24539232845166864	-0.27920032816704593	0.830014910625282	0.1962102486066659	-0.37099597717484767	1.115803105472039	0.0036847569628841973	0.616558324982194	0.8674834901472196	0.020577743021443877	0.17604369881652437	0.9260913606206307	0.02300626226289859	-0.28593460087667555	1.0250194143672346	0.03190555308459379	-0.29185589432983994	0.8467386323150256	-0.0295190831550868	-0.29764549959694464	0.8742462678894576	0.047676721285852666	-0.35562388631625313	1.0821422791594741	0.0867623902965228	1.2744078333559326	0.8461693651943069	0.07901205966342546	1.5190338833584323	0.7896981711781135	0.07849619524758156	1.3918664730347463	0.6759246967894172	0.26771349534432015	1.170462267124944	0.8340930461586558	0.3113848593770627	0.8842091763828082	0.8338745780981361	0.13526442075364858	0.7022221610106186	0.6907921385578875	0.06794818542258507	0.621916561091885	0.7018264693381513	0.06934205619648	0.5932289122913488	0.7281532111720523	0.07755893995130476	0.5960972391507064	0.7296033213125727	-0.09220842476429686	1.1807498705396844	0.862392799912661	-0.1227123630119511	0.8769007956230487	0.8548692949825347	0.0356621502479608	0.7232005426229002	0.6771856662938072	0.12744380861048338	0.6710826358292832	0.6580228510784045	0.12902373863469177	0.6311117367823638	0.6575913057742773	0.08956610745403853	0.5942992235193412	0.714625731958293	
68	1.152542372881356	0.22274644649581246	0.6338923045970213	0.843191354062105	0.22065817408760985	0.17070696133925456	0.9552256441353365	0.21543696354118388	-0.2667196472744645	1.0085050277749896	0.17859429133913346	-0.2875259094920832	0.8305795367955754	0.24539532712041512	-0.27924245573851714	0.8302047452331535	0.19621383829173233	-0.3709819901294948	1.1157805845478945	0.0036778193845558344	0.6164103745733944	0.8674541365843377	0.020719165342092578	0.1766043014654945	0.9257909432077753	0.023008627696908104	-0.2857500589153639	1.0250484704021625	0.03191304316287065	-0.2918177988260915	0.8467003667216548	-0.02877902159040366	-0.2968579040249178	0.8741772528460792	0.047620361090168595	-0.3555737988899984	1.0815460877559255	0.08676068665421438	1.2744012002869474	0.846156573099027	0.07899012191581105	1.5190381089854899	0.7897752016828913	0.07848468797230641	1.3918751357981292	0.6759268429685865	0.2677087436410207	1.1704760000528187	0.8340674454633572	0.311375438126012	0.8842089652005262	0.8338719628057336	0.13596497571801786	0.7023346567644241	0.6908175551960123	0.06905261059483067	0.6223219877523791	0.7006080082941345	0.06934471639988059	0.5931879971020768	0.7281219980347471	0.07755459991873102	0.5960769568329682	0.7296315034851788	-0.09184500513150876	1.18074892447549	0.8625757051059172	-0.12271060096592745	0.8769466181037832	0.8549577335490238	0.03562731843350152	0.7228253764421765	0.6771749630062764	0.12744780270083783	0.671094305505914	0.6579896918185367	0.12907862888041458	0.6310642661355375	0.6577519842631756	0.08989029139523691	0.5950063290542771	0.7138098238007531	
